<svg width="113" height="40" xmlns="http://www.w3.org/2000/svg"><title>interdiscount.ch</title><path class="fill-logo" d="M0 0h114v1H0V0zM0 8a6 6 0 1 1 12 0A6 6 0 0 1 0 8Z"></path><path class="fill-gray-900" d="M97 21.294V20h-4v11h4v-5.824c.322-.96.363-1.676 1.5-1.676s1.5 1.032 1.5 1.676V31h4v-7.118c0-2.215-1.718-3.882-3.682-3.882-1.965 0-2.8.8-3.318 1.294ZM110 23h3.5v-3H110v-3h-1l-4 4v2h1v4.944c0 1.59 1.357 3.556 4.192 3.556 1.65 0 3.245-.733 3.808-1.1v-3.488c-.398.366-1.538.794-2.278.794S110 27.49 110 27v-4ZM43 23.909C43 27.302 40.815 31 36.975 31H29V17h6.971C40.165 17 43 20.515 43 23.909Zm-8.999-3.356V27.5h1.37c1.314 0 2.629-1.363 2.629-3.531 0-2.169-1.428-3.469-2.685-3.469-1.257 0-1.315.06-1.315.06l.001-.007ZM48 21v10h-4V21zM56.428 24.078v-2.856C55.922 20.63 54.918 20 53.06 20c-2.197 0-4 1.242-4 3.017s.51 2.704 2.927 3.902c1.07.532.845 1.3.057 1.3-.789 0-1.578-.177-3.043-1.3v3.372c.902.474 2.025.709 3.72.709 1.693 0 4.28-.414 4.28-3.314 0-1.242-1.35-2.662-2.986-3.373-1.302-.567-.959-1.479-.056-1.479.45 0 1.739.533 2.47 1.244ZM44.5 18.5a1.5 1.5 0 1 1 3 0 1.5 1.5 0 0 1-3 0ZM66 24.294v-3.765A7.82 7.82 0 0 0 63.129 20c-1.103 0-5.629.646-5.629 5.53S61.97 31 63.129 31c1.158 0 2.485-.354 2.871-.53v-3.524a4.178 4.178 0 0 1-2.098.578c-.718 0-2.318-.528-2.318-2.058 0-1.53 1.435-1.883 2.318-1.883a3.752 3.752 0 0 1 2.098.705v.006ZM91 26.971V20h-4v6.375c0 1.131-1.344 1.11-1.774 1.052-.43-.058-1.226-.279-1.226-1.052V20h-4v7.566C80 29.886 82.52 31 84 31s2.79-.815 3.5-1.886C88.151 30.424 88.744 31 92 31v-3.063c-.51 0-1-.241-1-.966ZM67 25.504C67 22.467 69.686 20 73 20s6 2.46 6 5.504C79 28.547 76.314 31 73 31s-6-2.461-6-5.496Zm6.029 2.056c.946 0 1.714-.895 1.714-1.999 0-1.103-.768-2-1.714-2s-1.707.894-1.707 2.002c0 1.108.76 1.997 1.707 1.997Z"></path><path class="fill-logo" d="M0 32h114v7H0v-7z"></path><path class="fill-gray-900" d="M29 2h5v14h-5V2zM39 6.294V5h-4v11h4v-5.824c.322-.96.363-1.676 1.5-1.676S42 9.532 42 10.176V16h4V8.882C46 6.667 44.282 5 42.318 5c-1.965 0-2.8.8-3.318 1.294ZM52 8h3.5V5H52V2h-1l-4 4v2h1v4.944c0 1.59 1.357 3.556 4.192 3.556 1.65 0 3.245-.733 3.808-1.1v-3.488c-.398.366-1.538.794-2.278.794S52 12.49 52 12V8ZM68 12.167v2.666c-.372.192-2.16 1.667-4.942 1.667-3.77 0-6.058-2.17-6.058-6.064-.004-3.379 1.975-5.936 5.497-5.936C66.02 4.5 68 6.656 68 11h-6.47c0 1.915 1.524 2.308 2.636 2.308 1.117.005 3.34-.886 3.834-1.141ZM64.12 9.03c.134-.624-.406-1.53-1.284-1.53-.879 0-1.307.81-1.307 1.53h2.59ZM73 5h-4v11h4v-4.625c0-1.013 1.65-2.244 2.592-2.244.77-.014 1.527.2 2.178.614l.25-3.85c-.297-.536-1.045-.98-2.112-.98-1.067 0-1.902.419-2.908 2.085V5Z"></path><path class="fill-logo" d="M0 15h12v16H0V15zM13 31c7.9 0 15-6.549 15-14.621S20.895 2 13 2v29Z"></path></svg>